<svg xmlns="http://www.w3.org/2000/svg" width="1024" height="1024" viewBox="0 0 1024 1024"><title>favicon</title><path d="M1023.59,492.13A511.82,511.82,0,0,0,150,150,510.43,510.43,0,0,0,0,512c0,6.65.16,13.27.41,19.87A511.82,511.82,0,0,0,874,874a510.43,510.43,0,0,0,150-362C1024,505.35,1023.84,498.73,1023.59,492.13Zm-20.29,0H40.14C50.59,240.9,258.25,39.73,512,39.73V20.27C776.48,20.27,992.83,230.16,1003.3,492.13ZM20.7,531.87H983.86C973.41,783.1,765.75,984.27,512,984.27v19.46C247.52,1003.73,31.17,793.84,20.7,531.87Z"/></svg>