<?xml version="1.0" standalone="no"?>
<!DOCTYPE svg PUBLIC "-//W3C//DTD SVG 20010904//EN"
 "http://www.w3.org/TR/2001/REC-SVG-20010904/DTD/svg10.dtd">
<svg version="1.0" xmlns="http://www.w3.org/2000/svg"
 width="700.000000pt" height="700.000000pt" viewBox="0 0 700.000000 700.000000"
 preserveAspectRatio="xMidYMid meet">
<metadata>
Created by potrace 1.11, written by Peter Selinger 2001-2013
</metadata>
<g transform="translate(0.000000,700.000000) scale(0.100000,-0.100000)"
fill="#000000" stroke="none">
<path d="M3279 6996 c-2 -2 -44 -7 -93 -11 -49 -4 -98 -8 -110 -10 -11 -2 -43
-7 -71 -11 -27 -4 -54 -8 -60 -10 -5 -1 -30 -5 -55 -8 -25 -4 -52 -9 -60 -11
-8 -2 -31 -7 -50 -10 -28 -5 -66 -14 -120 -30 -3 -1 -23 -5 -45 -9 -66 -13
-281 -85 -415 -139 -465 -186 -867 -458 -1231 -832 -37 -38 -77 -81 -89 -95
-11 -14 -31 -36 -44 -50 -132 -146 -328 -439 -454 -680 -118 -226 -254 -605
-296 -820 -3 -14 -12 -59 -20 -100 -19 -101 -26 -137 -32 -190 -3 -25 -7 -56
-9 -70 -26 -149 -26 -717 0 -820 2 -8 7 -40 10 -70 6 -49 37 -224 49 -275 2
-11 11 -51 20 -90 9 -38 30 -112 46 -164 17 -52 30 -98 30 -103 0 -6 6 -24 14
-41 8 -18 29 -70 47 -117 195 -522 576 -1051 1024 -1423 94 -78 312 -237 355
-259 14 -7 50 -29 80 -49 144 -93 433 -228 660 -307 189 -67 493 -140 650
-157 30 -3 89 -11 130 -17 41 -5 183 -11 315 -13 216 -2 298 2 460 20 81 9
337 54 375 65 19 6 46 13 60 16 281 56 795 281 1070 469 175 120 200 137 230
166 9 8 38 32 65 52 106 82 340 308 430 417 21 25 41 47 44 50 4 3 45 55 91
115 340 447 562 950 664 1506 39 211 50 345 51 609 0 219 -7 332 -31 500 -22
154 -26 174 -30 181 -2 3 -6 20 -9 37 -14 83 -49 217 -96 372 -6 19 -28 82
-50 140 -102 266 -208 477 -354 700 -470 721 -1216 1254 -2055 1469 -85 22
-175 42 -200 46 -25 3 -63 10 -85 15 -22 4 -83 14 -135 20 -52 6 -106 14 -120
16 -29 6 -546 15 -551 10z m598 -156 c134 -18 276 -41 333 -55 30 -8 66 -16
80 -18 98 -18 390 -115 526 -175 326 -144 569 -293 834 -512 142 -117 308
-283 425 -425 28 -33 52 -62 55 -65 48 -48 214 -295 303 -450 94 -166 250
-529 282 -660 2 -8 17 -63 34 -123 16 -59 30 -110 29 -112 0 -3 3 -18 6 -33
32 -145 61 -357 70 -502 l5 -75 -3282 1 c-1805 1 -3287 2 -3294 3 -6 1 -10 12
-7 29 2 15 6 59 8 97 18 253 76 529 167 792 22 65 49 136 59 158 9 22 34 78
55 125 283 635 819 1198 1454 1527 196 101 484 212 671 258 122 30 195 45 235
51 28 3 52 8 55 9 3 2 33 7 65 10 33 4 62 9 65 10 6 4 180 17 275 20 39 2 80
4 93 4 20 1 22 5 22 67 l0 67 150 -7 c82 -3 184 -11 227 -16z m2834 -3479 c16
-1 16 -6 3 -146 -6 -74 -8 -90 -18 -170 -6 -44 -18 -120 -30 -180 -33 -165
-124 -463 -188 -610 -232 -536 -543 -940 -1020 -1320 -179 -143 -479 -315
-733 -420 -234 -97 -593 -195 -775 -211 -19 -1 -48 -5 -65 -8 -49 -9 -190 -19
-362 -25 -21 -1 -23 -5 -23 -67 l0 -67 -147 7 c-82 4 -161 9 -178 10 -361 38
-679 122 -1030 271 -139 59 -403 205 -530 294 -259 180 -489 387 -669 601 -39
47 -79 94 -88 104 -33 37 -167 232 -234 341 -167 272 -342 701 -398 975 -41
201 -60 323 -71 455 -3 39 -8 91 -10 116 -2 26 -2 48 0 50 3 3 6519 3 6566 0z"/>
</g>
</svg>
